<svg width="280" height="214" fill="none" xmlns="http://www.w3.org/2000/svg"><path d="M184.442 109.552c8.072 18.385 26.439 31.219 47.804 31.219 21.615 0 39.494-12.487 47.423-31.219h-12.834l-31.554-96.388 17.456-2.556V.056H24.593v10.552l18.502 2.718-31.503 96.226H.2c8.075 18.385 26.446 31.219 47.808 31.219 21.615 0 39.496-12.487 47.423-31.219H82.595l-31.094-95 76.819 11.27-9.672 147.563H82.571c-6.397 0-11.585 5.185-11.585 11.585l-33.177 10.62c-5.067 0-9.172 4.115-9.172 9.169 0 5.067 4.105 9.182 9.172 9.182h198.877c5.07 0 9.178-4.115 9.178-9.182 0-5.054-4.108-9.169-9.178-9.169h-6.273l-23.171-10.62c0-6.4-5.185-11.585-11.586-11.585H158.58l-9.681-147.549 78.088-11.45-31.158 95.166h-11.387zm-168.275 0 30.922-85.755 30.928 85.755h-61.85zm215.171-85.755 30.922 85.755h-61.847l30.925-85.755z" fill="url(#a)"/><defs><linearGradient id="a" x1=".199" y1="98.772" x2="279.71" y2="100.506" gradientUnits="userSpaceOnUse"><stop stop-color="#F926E1"/><stop offset="1" stop-color="#2AB5FB"/></linearGradient></defs></svg>