<svg width="22" height="24" fill="none" xmlns="http://www.w3.org/2000/svg"><mask id="a" style="mask-type:luminance" maskUnits="userSpaceOnUse" x="0" y="0" width="22" height="24"><path d="M.356 0h21.288v24H.356V0z" fill="#fff"/></mask><g mask="url(#a)"><path d="M11 23.992a.917.917 0 0 1-.35-.07C4.3 21.28.354 16.2.354 10.666v-4.2a3.17 3.17 0 0 1 1.893-2.9L9.694.291a3.172 3.172 0 0 1 2.539-.004l7.51 3.279a3.168 3.168 0 0 1 1.9 2.904v4.195c0 5.534-3.944 10.613-10.293 13.256a.91.91 0 0 1-.35.07zM10.967 1.85c-.184 0-.368.038-.54.113L2.982 5.236a1.344 1.344 0 0 0-.803 1.23v4.2c0 4.683 3.37 9.032 8.82 11.422 5.452-2.39 8.821-6.739 8.821-11.423V6.471c0-.535-.316-1.018-.806-1.232l-7.51-3.278a1.341 1.341 0 0 0-.537-.112z" fill="#34A6FC"/></g><path d="M10.132 15.667a.908.908 0 0 1-.577-.206L6.533 12.99a.913.913 0 0 1 1.154-1.414l2.337 1.91 4.178-4.822a.911.911 0 1 1 1.377 1.196l-4.758 5.492a.91.91 0 0 1-.69.315z" fill="#34A6FC"/></svg>