<svg width="80" height="80" viewBox="0 0 80 80" fill="none" xmlns="http://www.w3.org/2000/svg">
<circle cx="39.8998" cy="39.9003" r="33.1" fill="white"/>
<path d="M54.08 29.44C59.2 34.88 59.52 41.6 59.84 43.2H20.48C20.48 41.92 20.8 34.56 26.88 28.8C32.32 23.68 38.72 23.36 40.32 23.36C41.28 23.36 48.64 23.68 54.08 29.44ZM80 40C80 62.08 62.08 80 40 80C17.92 80 0 62.08 0 40C0 17.92 17.92 0 40 0C62.08 0 80 17.92 80 40ZM70.08 50.56C70.08 48.96 70.4 46.72 70.08 44.16H64.32V42.24H69.76C69.44 37.12 68.16 29.44 62.4 22.72C62.4 22.4 62.08 22.4 62.08 22.08L57.92 26.56L56.32 24.96L60.8 20.48C53.44 13.76 44.48 12.48 41.28 12.48V18.56H39.36V12.48C36.16 12.48 26.88 13.76 19.52 20.8L23.68 24.96L22.08 26.56L17.92 22.4C11.84 29.12 10.56 37.12 10.24 42.24H15.68V44.16H9.92V44.48C9.6 47.04 9.92 49.28 9.92 50.88L70.08 50.56Z" fill="#B7111D"/>
</svg>
